# xmcd CD database file
#
# Track frame offsets:
#	150
#	40953
#	112639
#	148135
#	173120
#	200936
#
# Disc length: 3231 seconds
#
# Revision: 0
# Processed by: cddbd v1.5.2PL0 Copyright (c) Steve Scherf et al.
# Submitted via: CDex 1.51
#
DISCID=530c9d06
DTITLE=Richard Bona - Makes You Sing At Basel Jazz Festival 2008
DYEAR=2008
DGENRE=Jazz
TTITLE0=Richard Bona - Ekwa Mwato (Bona)
TTITLE1=Richard Bona - Zawinul Medley (Bona_Zawinul)
TTITLE2=Richard Bona - Sama Duma (Bona)
TTITLE3=Richard Bona - Solo Los Dos (Torres_Simpson)
TTITLE4=Richard Bona - O Sen Sen (Bona)
TTITLE5=Richard Bona - Djombwe (Bona)
EXTD=YEAR: 2008
EXTT0=
EXTT1=
EXTT2=
EXTT3=
EXTT4=
EXTT5=
PLAYORDER=
